<svg class="icon logo-app-inverted" xmlns="http://www.w3.org/2000/svg" width="64" height="64" viewBox="0 0 64 64">
    <g fill="none" fill-rule="evenodd">
        <path id="logo" fill="#FFF" d="M32.025 12.8c1.274.033 2.477.156 3.577.364 6.07 1.236 11.02 5.122 13.612 10.669 2.503 5.357 2.402 11.397-.26 16.663.667 2.37 1.32 4.768 1.986 7.217.109.392.41 1.474-.364 2.49-.482.634-1.221.997-2.029.997-.378 0-.678-.08-.919-.143l-2.321-.606c-1.73-.452-3.454-.902-5.18-1.355-2.585 1.235-5.318 1.861-8.136 1.861-1.253 0-2.54-.125-3.826-.372-5.005-.956-9.492-4.016-12.31-8.394-2.818-4.378-3.743-9.723-2.538-14.666 2.11-8.694 9.59-14.612 18.613-14.725h.095zm-.08 4.936c-6.707.104-12.26 4.5-13.826 10.954-.887 3.639-.197 7.585 1.892 10.831 2.09 3.247 5.401 5.513 9.084 6.217 3.305.634 6.433.193 9.34-1.314l.13-.063c.644-.288 1.308-.367 2.07-.227l.183.04c1.448.38 2.896.76 4.345 1.138-.374-1.364-.748-2.712-1.126-4.048l-.034-.136c-.202-.906-.084-1.727.36-2.51 2.144-3.954 2.289-8.597.372-12.698-1.923-4.116-5.6-7-10.088-7.913-.782-.148-1.726-.244-2.702-.271zm-.141 5.864c1.294 0 2.357 1.061 2.357 2.355v3.814h3.92c1.26 0 2.29 1.028 2.29 2.288 0 1.26-1.03 2.288-2.29 2.288h-3.92v3.814c0 1.294-1.063 2.355-2.357 2.355-1.295 0-2.358-1.061-2.358-2.355v-3.814h-3.919c-1.261 0-2.291-1.028-2.291-2.288 0-1.26 1.03-2.288 2.291-2.288h3.919v-3.814c0-1.294 1.063-2.355 2.358-2.355z"></path>
    </g>
</svg>